<svg xmlns="http://www.w3.org/2000/svg" xmlns:xlink="http://www.w3.org/1999/xlink" width="200" zoomAndPan="magnify" viewBox="0 0 150 97.5" height="130" preserveAspectRatio="xMidYMid meet" version="1.2"><defs><clipPath id="c7d0c27157"><path d="M 0.382812 0 L 149.617188 0 L 149.617188 97.003906 L 0.382812 97.003906 Z M 0.382812 0 "/></clipPath><clipPath id="c3791d5567"><path d="M 59.011719 33 L 76 33 L 76 44 L 59.011719 44 Z M 59.011719 33 "/></clipPath><clipPath id="9e382834fb"><path d="M 59.011719 44 L 76 44 L 76 53 L 59.011719 53 Z M 59.011719 44 "/></clipPath><clipPath id="8e564fd20a"><path d="M 74 25 L 76 25 L 76 61.9375 L 74 61.9375 Z M 74 25 "/></clipPath><clipPath id="05b52c8213"><path d="M 59.011719 44 L 76 44 L 76 54 L 59.011719 54 Z M 59.011719 44 "/></clipPath><clipPath id="77e70a8186"><path d="M 74 33 L 91.097656 33 L 91.097656 44 L 74 44 Z M 74 33 "/></clipPath><clipPath id="0a64f9c856"><path d="M 59.011719 33 L 76 33 L 76 44 L 59.011719 44 Z M 59.011719 33 "/></clipPath><clipPath id="febd18c496"><path d="M 67 11.945312 L 76 11.945312 L 76 27 L 67 27 Z M 67 11.945312 "/></clipPath></defs><g id="e2abd37903"><g clip-rule="nonzero" clip-path="url(#c7d0c27157)"><path style=" stroke:none;fill-rule:nonzero;fill:#ffffff;fill-opacity:1;" d="M 0.382812 0 L 149.617188 0 L 149.617188 97.003906 L 0.382812 97.003906 Z M 0.382812 0 "/><path style=" stroke:none;fill-rule:nonzero;fill:#ffffff;fill-opacity:1;" d="M 0.382812 0 L 149.617188 0 L 149.617188 97.003906 L 0.382812 97.003906 Z M 0.382812 0 "/></g><path style=" stroke:none;fill-rule:evenodd;fill:#ffffff;fill-opacity:1;" d="M 82.324219 12.695312 C 83.386719 18.871094 80.925781 23.226562 74.945312 25.765625 C 76.207031 18.398438 78.664062 14.039062 82.324219 12.695312 Z M 82.324219 12.695312 "/><path style=" stroke:none;fill-rule:evenodd;fill:#ffffff;fill-opacity:1;" d="M 74.945312 25.765625 C 68.921875 22.523438 66.8125 18.027344 68.605469 12.277344 C 71.890625 13.933594 74.003906 18.429688 74.945312 25.765625 Z M 74.945312 25.765625 "/><path style=" stroke:none;fill-rule:evenodd;fill:#ffffff;fill-opacity:1;" d="M 74.984375 33.53125 C 66.28125 32.804688 61.492188 29.203125 60.613281 22.726562 C 65.722656 22.703125 70.515625 26.304688 74.984375 33.53125 Z M 74.984375 33.53125 "/><g clip-rule="nonzero" clip-path="url(#c3791d5567)"><path style=" stroke:none;fill-rule:evenodd;fill:#ffffff;fill-opacity:1;" d="M 75.03125 43.328125 C 66.214844 43.289062 60.984375 40.003906 59.34375 33.472656 C 64.46875 33.210938 69.699219 36.496094 75.03125 43.328125 Z M 75.03125 43.328125 "/></g><g clip-rule="nonzero" clip-path="url(#9e382834fb)"><path style=" stroke:none;fill-rule:evenodd;fill:#ffffff;fill-opacity:1;" d="M 75.078125 52.824219 C 67.234375 53.011719 62.03125 50.28125 59.460938 44.632812 C 65.109375 44.296875 70.3125 47.027344 75.078125 52.824219 Z M 75.078125 52.824219 "/></g><path style=" stroke:none;fill-rule:evenodd;fill:#ffffff;fill-opacity:1;" d="M 74.984375 33.53125 C 79.265625 26.960938 84.078125 23.398438 89.421875 22.84375 C 87.300781 29.546875 82.484375 33.109375 74.984375 33.53125 Z M 74.984375 33.53125 "/><path style=" stroke:none;fill-rule:evenodd;fill:#ffffff;fill-opacity:1;" d="M 75.03125 43.328125 C 80.300781 36.890625 85.546875 33.585938 90.777344 33.414062 C 88.222656 40.054688 82.972656 43.359375 75.03125 43.328125 Z M 75.03125 43.328125 "/><path style=" stroke:none;fill-rule:evenodd;fill:#ffffff;fill-opacity:1;" d="M 75.078125 52.824219 C 78.652344 48.03125 83.625 45.28125 90 44.574219 C 87.574219 50.679688 82.601562 53.429688 75.078125 52.824219 Z M 75.078125 52.824219 "/><g clip-rule="nonzero" clip-path="url(#8e564fd20a)"><path style="fill:none;stroke-width:564.44;stroke-linecap:round;stroke-linejoin:round;stroke:#000000;stroke-opacity:1;stroke-miterlimit:22.926001;" d="M 35335.443376 58188.831425 C 35223.534875 35993.128399 35169.3856 24897.090557 35169.3856 24897.090557 " transform="matrix(0.00108208,0,0,0.00107689,36.889287,-1.045818)"/></g><path style="fill:none;stroke-width:564.44;stroke-linecap:round;stroke-linejoin:round;stroke:#000000;stroke-opacity:1;stroke-miterlimit:22.926001;" d="M 35292.123956 50023.685566 C 42244.890839 50585.923508 46840.359294 48032.275047 49082.13927 42362.740184 C 43190.698173 43019.289007 38595.229718 45572.937468 35292.123956 50023.685566 Z M 35292.123956 50023.685566 " transform="matrix(0.00108208,0,0,0.00107689,36.889287,-1.045818)"/><g clip-rule="nonzero" clip-path="url(#05b52c8213)"><path style="fill:none;stroke-width:564.44;stroke-linecap:round;stroke-linejoin:round;stroke:#000000;stroke-opacity:1;stroke-miterlimit:22.926001;" d="M 20859.537248 42417.150307 C 23234.885435 47662.286208 28043.341037 50197.797961 35292.123956 50023.685566 C 30887.982939 44640.710686 26079.527338 42105.198933 20859.537248 42417.150307 Z M 20859.537248 42417.150307 " transform="matrix(0.00108208,0,0,0.00107689,36.889287,-1.045818)"/></g><g clip-rule="nonzero" clip-path="url(#77e70a8186)"><path style="fill:none;stroke-width:564.44;stroke-linecap:round;stroke-linejoin:round;stroke:#000000;stroke-opacity:1;stroke-miterlimit:22.926001;" d="M 35248.804536 41205.618225 C 42587.836246 41234.636958 47439.611268 38165.905995 49800.519649 31999.425338 C 44966.794386 32159.028367 40118.629316 35227.759329 35248.804536 41205.618225 Z M 35248.804536 41205.618225 " transform="matrix(0.00108208,0,0,0.00107689,36.889287,-1.045818)"/></g><g clip-rule="nonzero" clip-path="url(#0a64f9c856)"><path style="fill:none;stroke-width:564.44;stroke-linecap:round;stroke-linejoin:round;stroke:#000000;stroke-opacity:1;stroke-miterlimit:22.926001;" d="M 20751.238698 32053.835461 C 22267.418392 38118.750555 27101.143655 41169.34481 35248.804536 41205.618225 C 30321.22053 34861.397831 25487.495267 31810.803576 20751.238698 32053.835461 Z M 20751.238698 32053.835461 " transform="matrix(0.00108208,0,0,0.00107689,36.889287,-1.045818)"/></g><path style="fill:none;stroke-width:564.44;stroke-linecap:round;stroke-linejoin:round;stroke:#000000;stroke-opacity:1;stroke-miterlimit:22.926001;" d="M 35205.485116 32108.245585 C 42136.59229 31716.492696 46587.662678 28408.35719 48547.866425 22183.839068 C 43609.452564 22698.92157 39161.992128 26007.057075 35205.485116 32108.245585 Z M 35205.485116 32108.245585 " transform="matrix(0.00108208,0,0,0.00107689,36.889287,-1.045818)"/><path style="fill:none;stroke-width:564.44;stroke-linecap:round;stroke-linejoin:round;stroke:#000000;stroke-opacity:1;stroke-miterlimit:22.926001;" d="M 21924.472985 22075.018821 C 22736.712107 28089.151133 27162.512834 31433.560054 35205.485116 32108.245585 C 31075.700425 25397.663693 26646.289747 22053.254771 21924.472985 22075.018821 Z M 21924.472985 22075.018821 " transform="matrix(0.00108208,0,0,0.00107689,36.889287,-1.045818)"/><path style="fill:none;stroke-width:564.44;stroke-linecap:round;stroke-linejoin:round;stroke:#000000;stroke-opacity:1;stroke-miterlimit:22.926001;" d="M 41988.584272 12760.005686 C 42970.491122 18494.832698 40696.22158 22539.318541 35169.3856 24897.090557 C 36335.399984 18055.924369 38606.059573 14007.811184 41988.584272 12760.005686 Z M 41988.584272 12760.005686 " transform="matrix(0.00108208,0,0,0.00107689,36.889287,-1.045818)"/><g clip-rule="nonzero" clip-path="url(#febd18c496)"><path style="fill:none;stroke-width:564.44;stroke-linecap:round;stroke-linejoin:round;stroke:#000000;stroke-opacity:1;stroke-miterlimit:22.926001;" d="M 29310.434067 12371.880139 C 27653.466258 17711.32692 29602.840151 21886.397059 35169.3856 24897.090557 C 34299.387251 18084.943101 32346.403407 13909.872962 29310.434067 12371.880139 Z M 29310.434067 12371.880139 " transform="matrix(0.00108208,0,0,0.00107689,36.889287,-1.045818)"/></g><g style="fill:#000000;fill-opacity:1;"><g transform="translate(2.575487, 84.212204)"><path style="stroke:none" d="M 14.015625 -0.25 C 14.460938 -0.25 14.84375 -0.398438 15.15625 -0.703125 C 15.46875 -1.015625 15.632812 -1.394531 15.65625 -1.84375 L 15.65625 -8.484375 L 5.171875 -8.484375 L 5.171875 -1.875 C 5.171875 -1.425781 5.332031 -1.039062 5.65625 -0.71875 C 5.988281 -0.40625 6.375 -0.25 6.8125 -0.25 L 7.15625 -0.25 L 7.15625 0 L 1.53125 0 L 1.53125 -0.25 L 1.875 -0.25 C 2.3125 -0.25 2.6875 -0.40625 3 -0.71875 C 3.320312 -1.039062 3.492188 -1.425781 3.515625 -1.875 L 3.515625 -16.09375 C 3.492188 -16.539062 3.320312 -16.914062 3 -17.21875 C 2.6875 -17.53125 2.3125 -17.6875 1.875 -17.6875 L 1.53125 -17.6875 L 1.53125 -17.9375 L 7.15625 -17.9375 L 7.15625 -17.6875 L 6.8125 -17.6875 C 6.375 -17.6875 5.992188 -17.53125 5.671875 -17.21875 C 5.359375 -16.914062 5.191406 -16.539062 5.171875 -16.09375 L 5.171875 -9.25 L 15.65625 -9.25 L 15.65625 -16.09375 C 15.632812 -16.707031 15.363281 -17.164062 14.84375 -17.46875 C 14.582031 -17.613281 14.304688 -17.6875 14.015625 -17.6875 L 13.6875 -17.6875 L 13.6875 -17.9375 L 19.296875 -17.9375 L 19.296875 -17.6875 L 18.96875 -17.6875 C 18.519531 -17.6875 18.132812 -17.523438 17.8125 -17.203125 C 17.5 -16.890625 17.335938 -16.507812 17.328125 -16.0625 L 17.328125 -1.875 C 17.335938 -1.425781 17.5 -1.039062 17.8125 -0.71875 C 18.132812 -0.40625 18.519531 -0.25 18.96875 -0.25 L 19.296875 -0.25 L 19.296875 0 L 13.6875 0 L 13.6875 -0.25 Z M 14.015625 -0.25 "/></g></g><g style="fill:#000000;fill-opacity:1;"><g transform="translate(23.402599, 84.212204)"><path style="stroke:none" d="M 1.765625 -0.25 C 2.179688 -0.25 2.53125 -0.378906 2.8125 -0.640625 C 3.09375 -0.910156 3.238281 -1.234375 3.25 -1.609375 L 3.25 -13.78125 C 3.25 -14.15625 3.101562 -14.472656 2.8125 -14.734375 C 2.53125 -14.992188 2.179688 -15.125 1.765625 -15.125 L 1.40625 -15.125 L 1.40625 -15.375 L 8.890625 -15.375 C 9.585938 -15.375 10.203125 -15.425781 10.734375 -15.53125 C 11.265625 -15.632812 11.609375 -15.71875 11.765625 -15.78125 L 11.765625 -12.859375 L 11.484375 -12.890625 L 11.484375 -13.28125 C 11.484375 -13.632812 11.363281 -13.9375 11.125 -14.1875 C 10.882812 -14.445312 10.578125 -14.578125 10.203125 -14.578125 L 4.875 -14.578125 L 4.875 -8.078125 L 9.25 -8.078125 C 9.59375 -8.078125 9.851562 -8.175781 10.03125 -8.375 C 10.207031 -8.582031 10.296875 -8.835938 10.296875 -9.140625 L 10.296875 -9.484375 L 10.578125 -9.484375 L 10.578125 -5.890625 L 10.296875 -5.890625 L 10.296875 -6.234375 C 10.296875 -6.703125 10.117188 -7.023438 9.765625 -7.203125 C 9.628906 -7.253906 9.484375 -7.285156 9.328125 -7.296875 L 4.875 -7.296875 L 4.875 -0.796875 L 8.890625 -0.796875 C 9.679688 -0.796875 10.34375 -0.929688 10.875 -1.203125 C 11.414062 -1.472656 11.828125 -1.796875 12.109375 -2.171875 C 12.390625 -2.546875 12.675781 -3.046875 12.96875 -3.671875 L 13.21875 -3.671875 L 11.8125 0 L 1.40625 0 L 1.40625 -0.25 Z M 1.765625 -0.25 "/></g></g><g style="fill:#000000;fill-opacity:1;"><g transform="translate(37.389814, 84.212204)"><path style="stroke:none" d="M 16.90625 -0.25 L 17.125 -0.25 L 17.125 0 L 11.859375 0 L 11.859375 -0.25 L 12.0625 -0.25 C 12.394531 -0.25 12.644531 -0.359375 12.8125 -0.578125 C 12.976562 -0.804688 13.0625 -1.019531 13.0625 -1.21875 C 13.0625 -1.414062 13.03125 -1.609375 12.96875 -1.796875 L 11.5625 -5.203125 L 5.078125 -5.203125 L 3.671875 -1.875 C 3.578125 -1.644531 3.53125 -1.429688 3.53125 -1.234375 C 3.53125 -1.046875 3.613281 -0.832031 3.78125 -0.59375 C 3.957031 -0.363281 4.21875 -0.25 4.5625 -0.25 L 4.765625 -0.25 L 4.765625 0 L -0.125 0 L -0.125 -0.25 L 0.078125 -0.25 C 0.429688 -0.25 0.789062 -0.375 1.15625 -0.625 C 1.53125 -0.875 1.835938 -1.25 2.078125 -1.75 C 5.816406 -9.738281 7.765625 -13.921875 7.921875 -14.296875 C 8.210938 -15.015625 8.363281 -15.492188 8.375 -15.734375 L 8.609375 -15.734375 L 14.9375 -1.75 C 15.4375 -0.75 16.09375 -0.25 16.90625 -0.25 Z M 5.40625 -5.96875 L 11.25 -5.96875 L 8.375 -12.984375 Z M 5.40625 -5.96875 "/></g></g><g style="fill:#000000;fill-opacity:1;"><g transform="translate(54.374286, 84.212204)"><path style="stroke:none" d="M 1.765625 -0.25 C 2.179688 -0.25 2.53125 -0.378906 2.8125 -0.640625 C 3.09375 -0.910156 3.238281 -1.234375 3.25 -1.609375 L 3.25 -13.734375 C 3.238281 -14.109375 3.082031 -14.429688 2.78125 -14.703125 C 2.476562 -14.984375 2.125 -15.125 1.71875 -15.125 L 1.40625 -15.125 L 1.40625 -15.375 L 6.71875 -15.375 L 6.71875 -15.125 L 6.40625 -15.125 C 6 -15.125 5.644531 -14.984375 5.34375 -14.703125 C 5.039062 -14.429688 4.890625 -14.109375 4.890625 -13.734375 L 4.890625 -0.796875 L 8.890625 -0.796875 C 9.679688 -0.796875 10.347656 -0.929688 10.890625 -1.203125 C 11.429688 -1.472656 11.84375 -1.796875 12.125 -2.171875 C 12.414062 -2.546875 12.695312 -3.046875 12.96875 -3.671875 L 13.21875 -3.671875 L 11.8125 0 L 1.40625 0 L 1.40625 -0.25 Z M 1.765625 -0.25 "/></g></g><g style="fill:#000000;fill-opacity:1;"><g transform="translate(68.105321, 84.212204)"><path style="stroke:none" d="M 9.734375 0.359375 C 7.117188 0.335938 5.054688 -0.382812 3.546875 -1.8125 C 2.035156 -3.25 1.28125 -5.207031 1.28125 -7.6875 C 1.28125 -10.175781 2.035156 -12.140625 3.546875 -13.578125 C 5.054688 -15.015625 7.117188 -15.734375 9.734375 -15.734375 C 10.796875 -15.734375 11.863281 -15.59375 12.9375 -15.3125 C 14.019531 -15.039062 14.953125 -14.671875 15.734375 -14.203125 L 16.296875 -10.5625 L 16.0625 -10.5625 C 15.332031 -13.5 13.21875 -14.96875 9.71875 -14.96875 C 7.675781 -14.96875 6.066406 -14.316406 4.890625 -13.015625 C 3.710938 -11.710938 3.125 -9.9375 3.125 -7.6875 C 3.125 -6.21875 3.390625 -4.941406 3.921875 -3.859375 C 4.453125 -2.773438 5.222656 -1.929688 6.234375 -1.328125 C 7.234375 -0.734375 8.398438 -0.4375 9.734375 -0.4375 C 11.066406 -0.4375 12.234375 -0.632812 13.234375 -1.03125 C 14.234375 -1.4375 15.0625 -2.097656 15.71875 -3.015625 C 16.375 -3.941406 16.742188 -5.085938 16.828125 -6.453125 L 17.0625 -6.453125 L 16.78125 -2.953125 C 16.113281 -1.921875 15.148438 -1.109375 13.890625 -0.515625 C 12.628906 0.0664062 11.242188 0.359375 9.734375 0.359375 Z M 9.734375 0.359375 "/></g></g><g style="fill:#000000;fill-opacity:1;"><g transform="translate(86.165733, 84.212204)"><path style="stroke:none" d="M 6.203125 -14.578125 L 4.84375 -14.578125 L 4.84375 -1.640625 C 4.863281 -1.109375 5.101562 -0.707031 5.5625 -0.4375 C 5.78125 -0.3125 6.023438 -0.25 6.296875 -0.25 L 6.640625 -0.25 L 6.65625 0 L 1.40625 0 L 1.40625 -0.25 L 1.765625 -0.25 C 2.160156 -0.25 2.5 -0.378906 2.78125 -0.640625 C 3.0625 -0.910156 3.203125 -1.234375 3.203125 -1.609375 L 3.203125 -13.78125 C 3.203125 -14.15625 3.0625 -14.472656 2.78125 -14.734375 C 2.5 -14.992188 2.160156 -15.125 1.765625 -15.125 L 1.40625 -15.125 L 1.40625 -15.375 L 7.84375 -15.375 C 9.445312 -15.375 10.710938 -15.003906 11.640625 -14.265625 C 12.578125 -13.535156 13.046875 -12.570312 13.046875 -11.375 C 13.046875 -10.175781 12.664062 -9.175781 11.90625 -8.375 C 11.15625 -7.570312 10.203125 -7.113281 9.046875 -7 C 9.585938 -6.757812 10.242188 -6.09375 11.015625 -5 C 11.003906 -5 11.300781 -4.617188 11.90625 -3.859375 C 12.507812 -3.109375 12.992188 -2.523438 13.359375 -2.109375 C 13.734375 -1.691406 14.035156 -1.375 14.265625 -1.15625 C 14.898438 -0.550781 15.628906 -0.25 16.453125 -0.25 L 16.453125 0 L 15.65625 0 C 14.300781 0 13.242188 -0.265625 12.484375 -0.796875 C 11.898438 -1.191406 11.367188 -1.675781 10.890625 -2.25 C 10.785156 -2.382812 10.351562 -2.984375 9.59375 -4.046875 C 8.832031 -5.117188 8.425781 -5.691406 8.375 -5.765625 C 7.457031 -6.910156 6.597656 -7.484375 5.796875 -7.484375 L 5.796875 -7.734375 C 7.796875 -7.734375 9 -7.835938 9.40625 -8.046875 C 9.96875 -8.335938 10.351562 -8.644531 10.5625 -8.96875 C 10.988281 -9.65625 11.203125 -10.40625 11.203125 -11.21875 C 11.203125 -12.257812 10.894531 -13.0625 10.28125 -13.625 C 9.664062 -14.195312 8.835938 -14.507812 7.796875 -14.5625 C 7.328125 -14.570312 6.796875 -14.578125 6.203125 -14.578125 Z M 6.203125 -14.578125 "/></g></g><g style="fill:#000000;fill-opacity:1;"><g transform="translate(102.227971, 84.212204)"><path style="stroke:none" d="M 16.90625 -0.25 L 17.125 -0.25 L 17.125 0 L 11.859375 0 L 11.859375 -0.25 L 12.0625 -0.25 C 12.394531 -0.25 12.644531 -0.359375 12.8125 -0.578125 C 12.976562 -0.804688 13.0625 -1.019531 13.0625 -1.21875 C 13.0625 -1.414062 13.03125 -1.609375 12.96875 -1.796875 L 11.5625 -5.203125 L 5.078125 -5.203125 L 3.671875 -1.875 C 3.578125 -1.644531 3.53125 -1.429688 3.53125 -1.234375 C 3.53125 -1.046875 3.613281 -0.832031 3.78125 -0.59375 C 3.957031 -0.363281 4.21875 -0.25 4.5625 -0.25 L 4.765625 -0.25 L 4.765625 0 L -0.125 0 L -0.125 -0.25 L 0.078125 -0.25 C 0.429688 -0.25 0.789062 -0.375 1.15625 -0.625 C 1.53125 -0.875 1.835938 -1.25 2.078125 -1.75 C 5.816406 -9.738281 7.765625 -13.921875 7.921875 -14.296875 C 8.210938 -15.015625 8.363281 -15.492188 8.375 -15.734375 L 8.609375 -15.734375 L 14.9375 -1.75 C 15.4375 -0.75 16.09375 -0.25 16.90625 -0.25 Z M 5.40625 -5.96875 L 11.25 -5.96875 L 8.375 -12.984375 Z M 5.40625 -5.96875 "/></g></g><g style="fill:#000000;fill-opacity:1;"><g transform="translate(119.212443, 84.212204)"><path style="stroke:none" d="M 11.578125 -13.28125 C 11.578125 -13.851562 11.332031 -14.253906 10.84375 -14.484375 C 10.664062 -14.546875 10.484375 -14.578125 10.296875 -14.578125 L 4.890625 -14.578125 L 4.890625 -8.078125 L 9.359375 -8.078125 C 9.691406 -8.078125 9.941406 -8.175781 10.109375 -8.375 C 10.285156 -8.582031 10.375 -8.835938 10.375 -9.140625 L 10.375 -9.484375 L 10.6875 -9.484375 L 10.6875 -5.890625 L 10.375 -5.890625 L 10.375 -6.234375 C 10.375 -6.640625 10.238281 -6.9375 9.96875 -7.125 C 9.8125 -7.226562 9.625 -7.285156 9.40625 -7.296875 L 4.890625 -7.296875 L 4.890625 -1.640625 C 4.910156 -1.179688 5.117188 -0.804688 5.515625 -0.515625 C 5.765625 -0.335938 6.0625 -0.25 6.40625 -0.25 L 6.765625 -0.25 L 6.765625 0 L 1.40625 0 L 1.40625 -0.25 L 1.765625 -0.25 C 2.179688 -0.25 2.53125 -0.378906 2.8125 -0.640625 C 3.101562 -0.910156 3.257812 -1.234375 3.28125 -1.609375 L 3.28125 -13.78125 C 3.257812 -14.3125 3.007812 -14.695312 2.53125 -14.9375 C 2.289062 -15.0625 2.035156 -15.125 1.765625 -15.125 L 1.40625 -15.125 L 1.40625 -15.375 L 8.96875 -15.375 C 9.46875 -15.375 10.015625 -15.414062 10.609375 -15.5 C 11.203125 -15.582031 11.617188 -15.675781 11.859375 -15.78125 L 11.859375 -12.859375 L 11.578125 -12.890625 Z M 11.578125 -13.28125 "/></g></g><g style="fill:#000000;fill-opacity:1;"><g transform="translate(132.610448, 84.212204)"><path style="stroke:none" d="M 8.25 -14.625 L 8.25 -1.609375 C 8.269531 -1.078125 8.523438 -0.6875 9.015625 -0.4375 C 9.242188 -0.3125 9.492188 -0.25 9.765625 -0.25 L 10.046875 -0.25 L 10.046875 0 L 4.765625 0 L 4.765625 -0.25 L 5.078125 -0.25 C 5.484375 -0.25 5.832031 -0.382812 6.125 -0.65625 C 6.414062 -0.9375 6.566406 -1.265625 6.578125 -1.640625 L 6.578125 -14.625 L 1.953125 -14.625 C 1.554688 -14.625 1.242188 -14.492188 1.015625 -14.234375 C 0.785156 -13.984375 0.671875 -13.679688 0.671875 -13.328125 L 0.671875 -12.921875 L 0.390625 -12.921875 L 0.390625 -15.8125 C 0.722656 -15.675781 1.203125 -15.570312 1.828125 -15.5 C 2.453125 -15.4375 2.921875 -15.40625 3.234375 -15.40625 L 11.578125 -15.40625 C 12.804688 -15.40625 13.765625 -15.539062 14.453125 -15.8125 L 14.453125 -12.921875 L 14.171875 -12.921875 L 14.171875 -13.328125 C 14.171875 -13.679688 14.050781 -13.984375 13.8125 -14.234375 C 13.570312 -14.492188 13.265625 -14.625 12.890625 -14.625 Z M 8.25 -14.625 "/></g></g></g></svg>